<?xml version="1.0" encoding="utf-8"?>
<!-- Generator: Adobe Illustrator 16.0.0, SVG Export Plug-In . SVG Version: 6.00 Build 0)  -->
<!DOCTYPE svg PUBLIC "-//W3C//DTD SVG 1.0//EN" "http://www.w3.org/TR/2001/REC-SVG-20010904/DTD/svg10.dtd">
<svg version="1.0" id="Layer_1" xmlns="http://www.w3.org/2000/svg" xmlns:xlink="http://www.w3.org/1999/xlink" x="0px" y="0px"
	 width="100px" height="100px" viewBox="0 0 100 100" enable-background="new 0 0 100 100" xml:space="preserve">
<path fill="#263238" d="M82.736,57.207c0.029-0.566,0.086-1.126,0.086-1.699c0-12.74-7.264-23.753-17.858-29.195
	c-0.194-8.12-6.8-14.646-14.964-14.646s-14.772,6.526-14.968,14.646c-10.596,5.442-17.857,16.456-17.857,29.195
	c0,0.573,0.059,1.133,0.084,1.702C12.927,59.841,10,64.559,10,70c0,8.284,6.716,14.997,15,15c2.63,0,5.065-0.734,7.214-1.924
	c5.13,3.313,11.224,5.257,17.786,5.257c6.561,0,12.656-1.942,17.783-5.257C69.932,84.266,72.366,85,74.997,85
	C83.284,85,90,78.284,90,70C90,64.559,87.073,59.837,82.736,57.207z M50,18.337c4.604,0,8.333,3.728,8.333,8.333
	c0,4.604-3.729,8.333-8.333,8.333c-4.603,0-8.333-3.729-8.333-8.333C41.667,22.063,45.397,18.337,50,18.337z M25,78.333
	c-4.603-0.003-8.333-3.729-8.333-8.333c0.003-4.605,3.73-8.333,8.333-8.337c4.603,0.004,8.333,3.729,8.333,8.337
	C33.333,74.604,29.603,78.333,25,78.333z M62.596,78.436c-3.736,2.056-8.029,3.231-12.596,3.231c-4.57,0-8.86-1.176-12.598-3.235
	C39.04,76.027,40,73.128,40,70c0.003-8.291-6.716-15-15-15.003c-0.391,0-0.755,0.084-1.14,0.112
	c0.141-9.341,5.176-17.471,12.65-21.984c2.419,5.039,7.526,8.544,13.49,8.544c5.967,0,11.07-3.505,13.488-8.544
	c7.476,4.516,12.508,12.645,12.646,21.984c-0.384-0.028-0.748-0.112-1.139-0.112C66.712,55,60,61.712,59.997,70
	C59.997,73.128,60.957,76.027,62.596,78.436z M74.997,78.333c-4.604,0-8.33-3.729-8.33-8.333c0-4.605,3.728-8.333,8.33-8.333
	c4.604,0,8.336,3.728,8.336,8.333C83.333,74.604,79.604,78.333,74.997,78.333z"/>
<path fill="#8BC34A" d="M50,45.508c-5.524,0-10,4.477-10,10c0,5.524,4.476,10,10,10c5.523,0,10-4.476,10-10
	C60,49.984,55.523,45.508,50,45.508z M50,58.841c-1.843,0-3.333-1.489-3.333-3.333c0-1.843,1.49-3.333,3.333-3.333
	s3.333,1.49,3.333,3.333C53.333,57.352,51.843,58.841,50,58.841z"/>
</svg>
